P3
15 15
255
0 0 0 0 0 0 0 0 0 255 255 255 255 255 255 255 255 255 0 0 0 0 0 0 0 0 0 0 0 0 0 0 0 0 0 0 0 0 0 0 0 0 0 0 0 
0 0 0 0 0 0 0 0 0 255 255 255 0 63 241 255 255 255 255 255 255 0 0 0 0 0 0 0 0 0 0 0 0 0 0 0 0 0 0 0 0 0 0 0 0 
0 0 0 0 0 0 255 255 255 255 255 255 0 63 241 0 63 241 255 255 255 0 0 0 0 0 0 255 255 255 255 255 255 255 255 255 0 0 0 0 0 0 0 0 0 
0 0 0 255 255 255 0 0 241 0 0 241 0 0 241 0 0 241 255 255 255 255 255 255 255 255 255 0 0 241 0 0 241 0 0 241 255 255 255 0 0 0 0 0 0 
255 255 255 0 0 241 0 0 241 255 255 241 0 0 241 0 0 241 0 0 241 0 0 241 0 0 241 0 0 241 0 0 241 0 0 241 0 0 241 255 255 255 0 0 0 
255 255 255 0 0 241 0 0 241 0 0 255 0 0 241 0 0 241 0 0 241 0 0 241 0 0 241 0 0 241 255 255 255 0 0 241 0 0 241 255 255 255 255 255 255 
255 255 255 0 0 241 0 0 241 0 0 241 0 0 241 0 0 241 0 0 241 0 0 241 0 0 241 255 255 255 0 0 241 255 255 255 0 0 241 0 0 241 255 255 255 
255 255 255 0 0 241 0 0 241 0 0 241 0 0 241 0 0 241 255 255 255 255 255 255 0 0 241 0 0 241 0 0 241 0 0 241 255 255 255 0 0 241 255 255 255 
0 0 0 255 255 255 0 0 241 0 0 241 0 0 241 255 255 255 255 255 255 0 0 0 255 255 255 0 0 241 0 0 241 0 0 241 255 255 255 0 0 241 255 255 255 
0 0 0 0 0 0 255 255 255 255 255 255 255 255 255 255 255 255 0 0 0 0 0 0 255 255 255 0 0 241 0 0 241 0 0 241 255 255 255 0 0 241 255 255 255 
0 0 0 0 0 0 0 0 0 0 0 0 0 0 0 0 0 0 0 0 0 0 0 0 255 255 255 0 0 241 0 0 241 255 255 255 0 0 241 0 0 241 255 255 255 
0 0 0 0 0 0 0 0 0 0 0 0 0 0 0 0 0 0 0 0 0 255 255 255 0 0 241 0 0 241 255 255 255 0 0 241 0 0 241 255 255 255 0 0 0 
0 0 0 0 0 0 0 0 0 0 0 0 0 0 0 0 0 0 0 0 0 255 255 255 0 0 241 0 0 241 0 0 241 0 0 241 255 255 255 255 255 255 0 0 0 
0 0 0 0 0 0 0 0 0 0 0 0 0 0 0 0 0 0 255 255 255 0 0 241 0 0 241 0 0 241 0 0 241 255 255 255 255 255 255 0 0 0 0 0 0 
0 0 0 0 0 0 0 0 0 0 0 0 0 0 0 0 0 0 255 255 255 255 255 255 255 255 255 155 105 55 255 255 255 0 0 0 0 0 0 0 0 0 0 0 0 
