P1
15 15
111110000001111
111100111110011
111011111111001
110111111111101
110111111111110
110111111111110
111011110001110
111011101110010
100011100111100
001111110011111
011111111011111
000101111011111
110111111011111
111011110111111
111100001111111
